<?xml version="1.0" encoding="UTF-8"?>
<svg width="173px" height="30px" viewBox="0 0 173 30" version="1.1" xmlns="http://www.w3.org/2000/svg" xmlns:xlink="http://www.w3.org/1999/xlink">
    <defs>
        <path d="M163.32,9.543 L161.097,15.68 L165.619,15.68 L163.396,9.543 L163.32,9.543 Z M159.178,21 L157.24,21 L162.37,7.396 L164.346,7.396 L169.476,21 L167.538,21 L166.227,17.314 L160.508,17.314 L159.178,21 Z M172.82,21 L171.072,21 L171.072,7.396 L172.82,7.396 L172.82,21 Z" id="path-1"></path>
    </defs>
    <g id="Page-1" stroke="none" stroke-width="1" fill="none" fill-rule="evenodd">
        <g id="gcloud-ai">
            <g id="ai-solutions-icon" fill="#1A73E9" fill-rule="nonzero">
                <path d="M23.7456443,19.7330831 L25.2696513,17.0256474 L30.823678,17.0256474 L32,14.932958 L28.469545,8.65639101 L22.7003556,8.65639101 L21.1004088,5.82585594 L19.4662146,5.82585594 L19.4662146,3.85626591 L22.2074916,3.85626591 L23.8059494,6.68680098 L27.3617177,6.68680098 L23.9012464,0.53333333 L17.0666667,0.53333333 L17.0666667,8.77949039 L19.8161332,8.77949039 L20.9358726,10.7483298 L17.0666667,10.7483298 L17.0666667,14.8098587 L20.7117759,14.8098587 L22.3742613,11.8562242 L26.7780237,11.8562242 L27.8865955,13.8258142 L23.4820886,13.8258142 L21.8188586,16.7794487 L17.0666667,16.7794487 L17.0666667,24.4101089 L22.9914581,24.4101089 L21.8836308,26.3789483 L17.0666667,26.3789483 L17.0666667,29.3333333 L23.9012464,29.3333333 L29.7158507,18.9952375 L26.3767341,18.9952375 L24.8534716,21.7026732 L19.4662146,21.7026732 L19.4662146,19.7330831 L23.7456443,19.7330831 Z M8.54915412,19.9108516 L6.97071825,17.1031406 L1.2183335,17.1031406 L0,14.9329441 L3.65654269,8.42391166 L9.63177452,8.42391166 L11.2888623,5.48854197 L12.9814205,5.48854197 L12.9814205,3.44600415 L10.1422408,3.44600415 L8.48669525,6.38137385 L4.80393525,6.38137385 L8.38799482,0 L15.4666667,0 L15.4666667,8.55157028 L12.6190049,8.55157028 L11.4592748,10.5933297 L15.4666667,10.5933297 L15.4666667,14.8052855 L11.691375,14.8052855 L9.96951507,11.7422572 L5.40847542,11.7422572 L4.26031176,13.784795 L8.82212251,13.784795 L10.5447535,16.8478233 L15.4666667,16.8478233 L15.4666667,24.7611005 L9.33027553,24.7611005 L10.4776681,26.8028599 L15.4666667,26.8028599 L15.4666667,29.8666667 L8.38799482,29.8666667 L2.36572606,19.1456784 L5.82409679,19.1456784 L7.40176156,21.9533895 L12.9814205,21.9533895 L12.9814205,19.9108516 L8.54915412,19.9108516 Z" id="Shape"></path>
            </g>
            <path d="M48.774,21.3177743 C46.654,21.3177743 44.834,20.5677743 43.3,19.0677743 C41.766,17.5677743 41,15.7637743 41,13.6597743 C41,11.5557743 41.765,9.75177435 43.3,8.25177435 C44.835,6.75177435 46.657,6.00077435 48.774,6.00077435 C50.7357312,5.97225714 52.6268002,6.73243155 54.023,8.11077435 L52.546,9.58777435 C51.5352873,8.6104635 50.1788039,8.07297538 48.773,8.09277435 C47.243,8.09277435 45.943,8.63277435 44.877,9.71977435 C43.8290664,10.7603978 43.2521048,12.1841959 43.28,13.6607743 C43.28,15.2067743 43.81,16.5177743 44.877,17.6007743 C45.890762,18.6644178 47.303873,19.254544 48.773,19.2277743 C50.331,19.2277743 51.618,18.7277743 52.643,17.6937743 C53.243,17.0937743 53.643,16.1937743 53.783,15.0587743 L48.777,15.0587743 L48.777,12.9667743 L55.821,12.9667743 C55.896,13.3387743 55.921,13.7667743 55.921,14.2667743 C55.921,16.3227743 55.318,17.9527743 54.108,19.1617743 C52.736,20.5967743 50.958,21.3117743 48.763,21.3117743 L48.774,21.3177743 Z M65.144,19.9177743 C64.184,20.8577743 63.014,21.3177743 61.632,21.3177743 C60.25,21.3177743 59.078,20.8477743 58.12,19.9177743 C57.162,18.9877743 56.682,17.8047743 56.682,16.3977743 C56.682,14.9907743 57.162,13.8177743 58.12,12.8777743 C59.078,11.9377743 60.25,11.4777743 61.632,11.4777743 C63.014,11.4777743 64.186,11.9477743 65.144,12.8777743 C66.102,13.8077743 66.582,14.9937743 66.582,16.3977743 C66.582,17.8017743 66.102,18.9777743 65.144,19.9177743 Z M59.67,18.5377743 C60.174528,19.0860631 60.8879447,19.3946167 61.633,19.3867743 C62.393,19.3867743 63.047,19.1047743 63.596,18.5367743 C64.145,17.9687743 64.418,17.2567743 64.418,16.3967743 C64.418,15.5267743 64.148,14.8087743 63.605,14.2467743 C63.062,13.6847743 62.407,13.4067743 61.633,13.4067743 C60.8864588,13.3953223 60.1699774,13.7005172 59.661,14.2467743 C59.118,14.8067743 58.848,15.5227743 58.848,16.3967743 C58.848,17.2547743 59.121,17.9697743 59.67,18.5367743 L59.67,18.5377743 Z M75.943,19.9177743 C74.983,20.8577743 73.813,21.3177743 72.431,21.3177743 C71.049,21.3177743 69.877,20.8477743 68.919,19.9177743 C67.961,18.9877743 67.481,17.8047743 67.481,16.3977743 C67.481,14.9907743 67.961,13.8177743 68.919,12.8777743 C69.877,11.9377743 71.049,11.4777743 72.431,11.4777743 C73.813,11.4777743 74.985,11.9477743 75.943,12.8777743 C76.901,13.8077743 77.381,14.9937743 77.381,16.3977743 C77.381,17.8017743 76.901,18.9777743 75.943,19.9177743 Z M70.469,18.5377743 C70.973528,19.0860631 71.6869447,19.3946167 72.432,19.3867743 C73.192,19.3867743 73.846,19.1047743 74.395,18.5367743 C74.944,17.9687743 75.217,17.2567743 75.217,16.3967743 C75.217,15.5267743 74.947,14.8087743 74.404,14.2467743 C73.861,13.6847743 73.206,13.4067743 72.432,13.4067743 C71.6854588,13.3953223 70.9689774,13.7005172 70.46,14.2467743 C69.917,14.8067743 69.647,15.5227743 69.647,16.3967743 C69.647,17.2547743 69.92,17.9697743 70.469,18.5367743 L70.469,18.5377743 Z M83.042,25.7577743 C81.947,25.7577743 81.025,25.4637743 80.278,24.8777743 C79.531,24.2917743 78.996,23.6137743 78.672,22.8397743 L80.56,22.0567743 C80.758,22.5307743 81.06,22.9417743 81.493,23.2907743 C81.926,23.6397743 82.433,23.8127743 83.045,23.8127743 C83.867,23.8127743 84.513,23.5627743 84.978,23.0657743 C85.443,22.5687743 85.678,21.8497743 85.678,20.9157743 L85.678,20.2157743 L85.603,20.2157743 C85.003,20.9627743 84.126,21.3377743 83.007,21.3377743 C81.749,21.3377743 80.647,20.8577743 79.7,19.8997743 C78.7703576,18.9846361 78.2570306,17.7280693 78.28,16.4237743 C78.2566495,15.1114739 78.7694676,13.8464022 79.7,12.9207743 C80.645,11.9577743 81.75,11.4737743 83.007,11.4737743 C83.567,11.4737743 84.075,11.5787743 84.529,11.7917743 C84.983,12.0047743 85.342,12.2657743 85.603,12.5747743 L85.678,12.5747743 L85.678,11.7807743 L87.734,11.7807743 L87.734,20.6377743 C87.734,22.3577743 87.296,23.6417743 86.416,24.4977743 C85.536,25.3477743 84.414,25.7777743 83.043,25.7777743 L83.042,25.7577743 Z M83.192,19.3857743 C83.9138866,19.3985214 84.6034608,19.086947 85.071,18.5367743 C85.575,17.9697743 85.827,17.2637743 85.827,16.4147743 C85.827,15.5567743 85.575,14.8387743 85.071,14.2647743 C84.6060801,13.7100813 83.9156657,13.3948202 83.192,13.4067743 C82.432,13.4067743 81.784,13.6947743 81.25,14.2647743 C80.716,14.8347743 80.446,15.5527743 80.446,16.4147743 C80.446,17.2607743 80.713,17.9697743 81.25,18.5367743 C81.787,19.1037743 82.433,19.3867743 83.192,19.3867743 L83.192,19.3857743 Z M91.394,6.52077435 L91.394,21.0207743 L89.227,21.0207743 L89.227,6.52077435 L91.394,6.52077435 Z M97.334,21.3167743 C95.938,21.3167743 94.774,20.8427743 93.84,19.8967743 C92.906,18.9507743 92.438,17.7807743 92.438,16.3847743 C92.438,14.9407743 92.888,13.7547743 93.792,12.8347743 C94.6494022,11.9325141 95.8454904,11.4305777 97.09,11.4507743 C97.687,11.4507743 98.243,11.5587743 98.753,11.7777743 C99.227168,11.972074 99.658639,12.2574569 100.023,12.6177743 C100.326858,12.9202518 100.596483,13.255271 100.827,13.6167743 C101.017503,13.9257217 101.180144,14.2510037 101.313,14.5887743 L101.538,15.1487743 L94.944,17.8807743 C95.444,18.8767743 96.244,19.3757743 97.336,19.3757743 C98.332,19.3757743 99.143,18.9227743 99.764,18.0127743 L101.444,19.1347743 C101.069,19.6947743 100.541,20.1997743 99.856,20.6477743 C99.171,21.0957743 98.328,21.3177743 97.332,21.3177743 L97.334,21.3167743 Z M94.588,16.2367743 L98.988,14.4067743 C98.862,14.0947743 98.634,13.8427743 98.288,13.6507743 C97.9400664,13.4558726 97.5467546,13.3565096 97.148,13.3627743 C96.512,13.3627743 95.918,13.6227743 95.365,14.1457743 C94.812,14.6687743 94.545,15.3677743 94.57,16.2377743 L94.588,16.2367743 Z M112.918,21.3167743 C110.948,21.3167743 109.298,20.6507743 107.966,19.3167743 C106.634,17.9827743 105.966,16.3217743 105.966,14.3287743 C105.966,12.3357743 106.632,10.6727743 107.966,9.34077435 C109.3,8.00877435 110.949,7.34077435 112.918,7.34077435 C114.935,7.34077435 116.574,8.07077435 117.831,9.52577435 L116.636,10.6857743 C115.736,9.55177435 114.486,8.98577435 112.916,8.98577435 C111.456,8.98577435 110.23,9.47777435 109.216,10.4627743 C108.202,11.4477743 107.712,12.7347743 107.712,14.3287743 C107.712,15.9227743 108.212,17.2127743 109.216,18.1987743 C110.22,19.1847743 111.449,19.6757743 112.916,19.6757743 C114.522,19.6757743 115.893,19.0277743 117.016,17.7337743 L118.211,18.9287743 C117.584814,19.6759784 116.798805,20.2730036 115.911,20.6757743 C114.969341,21.1089202 113.94345,21.3281687 112.907,21.3177743 L112.918,21.3167743 Z M121.474,21.0207743 L119.754,21.0207743 L119.754,7.64377435 L121.474,7.64377435 L121.474,21.0207743 Z M124.277,12.9607743 C125.162,12.0337743 126.277,11.5677743 127.659,11.5677743 C129.041,11.5677743 130.156,12.0327743 131.041,12.9607743 C131.926,13.8887743 132.368,15.0607743 132.368,16.4457743 C132.368,17.8307743 131.928,19.0027743 131.041,19.9307743 C130.154,20.8587743 129.041,21.3237743 127.659,21.3237743 C126.277,21.3237743 125.162,20.8587743 124.277,19.9307743 C123.392,19.0027743 122.95,17.8307743 122.95,16.4457743 C122.95,15.0607743 123.39,13.8887743 124.277,12.9607743 Z M125.557,18.8437743 C126.157,19.4467743 126.851,19.7497743 127.657,19.7497743 C128.463,19.7497743 129.157,19.4467743 129.757,18.8437743 C130.357,18.2407743 130.645,17.4387743 130.645,16.4437743 C130.645,15.4487743 130.348,14.6457743 129.757,14.0437743 C129.166,13.4417743 128.463,13.1377743 127.657,13.1377743 C126.851,13.1377743 126.157,13.4407743 125.557,14.0437743 C124.957,14.6467743 124.669,15.4487743 124.669,16.4437743 C124.669,17.4387743 124.966,18.2417743 125.557,18.8437743 Z M141.877,21.0207743 L140.232,21.0207743 L140.232,19.7507743 L140.157,19.7507743 C139.897,20.1857743 139.497,20.5577743 138.962,20.8507743 C138.427,21.1437743 137.862,21.3107743 137.262,21.3107743 C136.115,21.3107743 135.248,20.9627743 134.657,20.2637743 C134.066,19.5647743 133.769,18.6307743 133.769,17.4607743 L133.769,11.8547743 L135.489,11.8547743 L135.489,17.1787743 C135.489,18.8867743 136.242,19.7387743 137.749,19.7387743 C138.433567,19.7532209 139.08219,19.4330146 139.487,18.8807743 C139.931562,18.3170507 140.16882,17.6176344 140.159,16.8997743 L140.159,11.8547743 L141.879,11.8547743 L141.879,21.0117743 L141.877,21.0207743 Z M147.705,21.3177743 C146.522,21.3177743 145.499,20.8497743 144.641,19.9157743 C143.783,18.9817743 143.353,17.8237743 143.353,16.4397743 C143.353,15.0557743 143.783,13.8977743 144.641,12.9637743 C145.499,12.0297743 146.523,11.5617743 147.705,11.5617743 C148.401,11.5617743 149.029,11.7117743 149.585,12.0087743 C150.141,12.3057743 150.555,12.6807743 150.828,13.1307743 L150.903,13.1307743 L150.828,11.8607743 L150.828,7.64077435 L152.548,7.64077435 L152.548,21.0207743 L150.903,21.0207743 L150.903,19.7507743 L150.828,19.7507743 C150.555,20.1977743 150.141,20.5727743 149.585,20.8727743 C149.03,21.1667743 148.402,21.3167743 147.705,21.3167743 L147.705,21.3177743 Z M147.985,19.7477743 C148.770057,19.7584401 149.521972,19.4318213 150.05,18.8507743 C150.617,18.2537743 150.9,17.4487743 150.9,16.4507743 C150.9,15.4527743 150.618,14.6377743 150.05,14.0507743 C149.521972,13.4697274 148.770057,13.1431086 147.985,13.1537743 C147.187,13.1537743 146.502,13.4567743 145.929,14.0597743 C145.356,14.6627743 145.071,15.4647743 145.071,16.4597743 C145.071,17.4547743 145.356,18.2577743 145.929,18.8597743 C146.452539,19.44286 147.201398,19.7728537 147.985,19.7657743 L147.985,19.7477743 Z" id="Shape" fill="#5F6368" fill-rule="nonzero"></path>
            <g id="AI">
                <use fill="#000000" xlink:href="#path-1"></use>
                <use fill="#5E6369" xlink:href="#path-1"></use>
            </g>
        </g>
    </g>
</svg>