<?xml version="1.0" encoding="UTF-8"?>
<svg width="155px" height="30px" viewBox="0 0 155 30" version="1.1" xmlns="http://www.w3.org/2000/svg" xmlns:xlink="http://www.w3.org/1999/xlink">
    <!-- Generator: Sketch 52.1 (67048) - http://www.bohemiancoding.com/sketch -->
    <title>google_cloud-ar21</title>
    <desc>Created with Sketch.</desc>
    <g id="Page-1" stroke="none" stroke-width="1" fill="none" fill-rule="evenodd">
        <g id="google_cloud-ar21">
            <path d="M22.87,8.572 L24.014,8.592 L27.122,5.484 L27.272,4.167 C24.802,1.97 21.552,0.633 17.995,0.633 C11.555,0.633 6.119,5.015 4.509,10.951 C4.849,10.714 5.574,10.891 5.574,10.891 L11.786,9.869 C11.786,9.869 12.106,9.339 12.266,9.372 C15.0338257,6.34407908 19.680253,5.99357066 22.871,8.572 L22.87,8.572 Z" id="Path" fill="#EA4335"></path>
            <path d="M31.5,10.962 C30.7859003,8.33468408 29.320688,5.97282855 27.284,4.166 L22.882,8.568 C24.7118371,10.0386384 25.7764494,12.2594309 25.777,14.607 L25.777,15.384 C27.919,15.384 29.657,17.127 29.657,19.264 C29.657,21.401 27.914,23.144 25.777,23.144 L18.015,23.144 L17.238,23.924 L17.238,28.582 L18.015,29.355 L25.777,29.355 C31.3422549,29.3401481 35.8490104,24.8302639 35.86,19.265 C35.856,15.829 34.124,12.785 31.49,10.962 L31.5,10.962 Z" id="Path" fill="#4285F4"></path>
            <path d="M10.234,29.362 L17.994,29.362 L17.994,23.15 L10.234,23.15 C9.68293494,23.1502632 9.13826829,23.0319167 8.637,22.803 L7.517,23.146 L4.409,26.254 L4.137,27.304 C5.88565521,28.6466388 8.03036331,29.3711549 10.235,29.364 L10.234,29.362 Z" id="Path" fill="#34A853"></path>
            <path d="M10.234,9.175 C4.66289097,9.18380984 0.148809835,13.697891 0.14,19.269 C0.13996882,22.4276945 1.62059628,25.4037557 4.14,27.309 L8.64,22.809 C7.24765966,22.1825486 6.35213858,20.7977786 6.352,19.271 C6.352,17.129 8.095,15.391 10.232,15.391 C11.7580291,15.3936736 13.1415442,16.2883832 13.77,17.679 L18.27,13.179 C16.424,10.749 13.51,9.179 10.23,9.179 L10.234,9.175 Z" id="Path" fill="#FBBC05"></path>
            <path d="M50.774,21.3177743 C48.654,21.3177743 46.834,20.5677743 45.3,19.0677743 C43.766,17.5677743 43,15.7637743 43,13.6597743 C43,11.5557743 43.765,9.75177435 45.3,8.25177435 C46.835,6.75177435 48.657,6.00077435 50.774,6.00077435 C52.7357312,5.97225714 54.6268002,6.73243155 56.023,8.11077435 L54.546,9.58777435 C53.5352873,8.6104635 52.1788039,8.07297538 50.773,8.09277435 C49.243,8.09277435 47.943,8.63277435 46.877,9.71977435 C45.8290664,10.7603978 45.2521048,12.1841959 45.28,13.6607743 C45.28,15.2067743 45.81,16.5177743 46.877,17.6007743 C47.890762,18.6644178 49.303873,19.254544 50.773,19.2277743 C52.331,19.2277743 53.618,18.7277743 54.643,17.6937743 C55.243,17.0937743 55.643,16.1937743 55.783,15.0587743 L50.777,15.0587743 L50.777,12.9667743 L57.821,12.9667743 C57.896,13.3387743 57.921,13.7667743 57.921,14.2667743 C57.921,16.3227743 57.318,17.9527743 56.108,19.1617743 C54.736,20.5967743 52.958,21.3117743 50.763,21.3117743 L50.774,21.3177743 Z M67.144,19.9177743 C66.184,20.8577743 65.014,21.3177743 63.632,21.3177743 C62.25,21.3177743 61.078,20.8477743 60.12,19.9177743 C59.162,18.9877743 58.682,17.8047743 58.682,16.3977743 C58.682,14.9907743 59.162,13.8177743 60.12,12.8777743 C61.078,11.9377743 62.25,11.4777743 63.632,11.4777743 C65.014,11.4777743 66.186,11.9477743 67.144,12.8777743 C68.102,13.8077743 68.582,14.9937743 68.582,16.3977743 C68.582,17.8017743 68.102,18.9777743 67.144,19.9177743 Z M61.67,18.5377743 C62.174528,19.0860631 62.8879447,19.3946167 63.633,19.3867743 C64.393,19.3867743 65.047,19.1047743 65.596,18.5367743 C66.145,17.9687743 66.418,17.2567743 66.418,16.3967743 C66.418,15.5267743 66.148,14.8087743 65.605,14.2467743 C65.062,13.6847743 64.407,13.4067743 63.633,13.4067743 C62.8864588,13.3953223 62.1699774,13.7005172 61.661,14.2467743 C61.118,14.8067743 60.848,15.5227743 60.848,16.3967743 C60.848,17.2547743 61.121,17.9697743 61.67,18.5367743 L61.67,18.5377743 Z M77.943,19.9177743 C76.983,20.8577743 75.813,21.3177743 74.431,21.3177743 C73.049,21.3177743 71.877,20.8477743 70.919,19.9177743 C69.961,18.9877743 69.481,17.8047743 69.481,16.3977743 C69.481,14.9907743 69.961,13.8177743 70.919,12.8777743 C71.877,11.9377743 73.049,11.4777743 74.431,11.4777743 C75.813,11.4777743 76.985,11.9477743 77.943,12.8777743 C78.901,13.8077743 79.381,14.9937743 79.381,16.3977743 C79.381,17.8017743 78.901,18.9777743 77.943,19.9177743 Z M72.469,18.5377743 C72.973528,19.0860631 73.6869447,19.3946167 74.432,19.3867743 C75.192,19.3867743 75.846,19.1047743 76.395,18.5367743 C76.944,17.9687743 77.217,17.2567743 77.217,16.3967743 C77.217,15.5267743 76.947,14.8087743 76.404,14.2467743 C75.861,13.6847743 75.206,13.4067743 74.432,13.4067743 C73.6854588,13.3953223 72.9689774,13.7005172 72.46,14.2467743 C71.917,14.8067743 71.647,15.5227743 71.647,16.3967743 C71.647,17.2547743 71.92,17.9697743 72.469,18.5367743 L72.469,18.5377743 Z M85.042,25.7577743 C83.947,25.7577743 83.025,25.4637743 82.278,24.8777743 C81.531,24.2917743 80.996,23.6137743 80.672,22.8397743 L82.56,22.0567743 C82.758,22.5307743 83.06,22.9417743 83.493,23.2907743 C83.926,23.6397743 84.433,23.8127743 85.045,23.8127743 C85.867,23.8127743 86.513,23.5627743 86.978,23.0657743 C87.443,22.5687743 87.678,21.8497743 87.678,20.9157743 L87.678,20.2157743 L87.603,20.2157743 C87.003,20.9627743 86.126,21.3377743 85.007,21.3377743 C83.749,21.3377743 82.647,20.8577743 81.7,19.8997743 C80.7703576,18.9846361 80.2570306,17.7280693 80.28,16.4237743 C80.2566495,15.1114739 80.7694676,13.8464022 81.7,12.9207743 C82.645,11.9577743 83.75,11.4737743 85.007,11.4737743 C85.567,11.4737743 86.075,11.5787743 86.529,11.7917743 C86.983,12.0047743 87.342,12.2657743 87.603,12.5747743 L87.678,12.5747743 L87.678,11.7807743 L89.734,11.7807743 L89.734,20.6377743 C89.734,22.3577743 89.296,23.6417743 88.416,24.4977743 C87.536,25.3477743 86.414,25.7777743 85.043,25.7777743 L85.042,25.7577743 Z M85.192,19.3857743 C85.9138866,19.3985214 86.6034608,19.086947 87.071,18.5367743 C87.575,17.9697743 87.827,17.2637743 87.827,16.4147743 C87.827,15.5567743 87.575,14.8387743 87.071,14.2647743 C86.6060801,13.7100813 85.9156657,13.3948202 85.192,13.4067743 C84.432,13.4067743 83.784,13.6947743 83.25,14.2647743 C82.716,14.8347743 82.446,15.5527743 82.446,16.4147743 C82.446,17.2607743 82.713,17.9697743 83.25,18.5367743 C83.787,19.1037743 84.433,19.3867743 85.192,19.3867743 L85.192,19.3857743 Z M93.394,6.52077435 L93.394,21.0207743 L91.227,21.0207743 L91.227,6.52077435 L93.394,6.52077435 Z M99.334,21.3167743 C97.938,21.3167743 96.774,20.8427743 95.84,19.8967743 C94.906,18.9507743 94.438,17.7807743 94.438,16.3847743 C94.438,14.9407743 94.888,13.7547743 95.792,12.8347743 C96.6494022,11.9325141 97.8454904,11.4305777 99.09,11.4507743 C99.687,11.4507743 100.243,11.5587743 100.753,11.7777743 C101.227168,11.972074 101.658639,12.2574569 102.023,12.6177743 C102.326858,12.9202518 102.596483,13.255271 102.827,13.6167743 C103.017503,13.9257217 103.180144,14.2510037 103.313,14.5887743 L103.538,15.1487743 L96.944,17.8807743 C97.444,18.8767743 98.244,19.3757743 99.336,19.3757743 C100.332,19.3757743 101.143,18.9227743 101.764,18.0127743 L103.444,19.1347743 C103.069,19.6947743 102.541,20.1997743 101.856,20.6477743 C101.171,21.0957743 100.328,21.3177743 99.332,21.3177743 L99.334,21.3167743 Z M96.588,16.2367743 L100.988,14.4067743 C100.862,14.0947743 100.634,13.8427743 100.288,13.6507743 C99.9400664,13.4558726 99.5467546,13.3565096 99.148,13.3627743 C98.512,13.3627743 97.918,13.6227743 97.365,14.1457743 C96.812,14.6687743 96.545,15.3677743 96.57,16.2377743 L96.588,16.2367743 Z M114.918,21.3167743 C112.948,21.3167743 111.298,20.6507743 109.966,19.3167743 C108.634,17.9827743 107.966,16.3217743 107.966,14.3287743 C107.966,12.3357743 108.632,10.6727743 109.966,9.34077435 C111.3,8.00877435 112.949,7.34077435 114.918,7.34077435 C116.935,7.34077435 118.574,8.07077435 119.831,9.52577435 L118.636,10.6857743 C117.736,9.55177435 116.486,8.98577435 114.916,8.98577435 C113.456,8.98577435 112.23,9.47777435 111.216,10.4627743 C110.202,11.4477743 109.712,12.7347743 109.712,14.3287743 C109.712,15.9227743 110.212,17.2127743 111.216,18.1987743 C112.22,19.1847743 113.449,19.6757743 114.916,19.6757743 C116.522,19.6757743 117.893,19.0277743 119.016,17.7337743 L120.211,18.9287743 C119.584814,19.6759784 118.798805,20.2730036 117.911,20.6757743 C116.969341,21.1089202 115.94345,21.3281687 114.907,21.3177743 L114.918,21.3167743 Z M123.474,21.0207743 L121.754,21.0207743 L121.754,7.64377435 L123.474,7.64377435 L123.474,21.0207743 Z M126.277,12.9607743 C127.162,12.0337743 128.277,11.5677743 129.659,11.5677743 C131.041,11.5677743 132.156,12.0327743 133.041,12.9607743 C133.926,13.8887743 134.368,15.0607743 134.368,16.4457743 C134.368,17.8307743 133.928,19.0027743 133.041,19.9307743 C132.154,20.8587743 131.041,21.3237743 129.659,21.3237743 C128.277,21.3237743 127.162,20.8587743 126.277,19.9307743 C125.392,19.0027743 124.95,17.8307743 124.95,16.4457743 C124.95,15.0607743 125.39,13.8887743 126.277,12.9607743 Z M127.557,18.8437743 C128.157,19.4467743 128.851,19.7497743 129.657,19.7497743 C130.463,19.7497743 131.157,19.4467743 131.757,18.8437743 C132.357,18.2407743 132.645,17.4387743 132.645,16.4437743 C132.645,15.4487743 132.348,14.6457743 131.757,14.0437743 C131.166,13.4417743 130.463,13.1377743 129.657,13.1377743 C128.851,13.1377743 128.157,13.4407743 127.557,14.0437743 C126.957,14.6467743 126.669,15.4487743 126.669,16.4437743 C126.669,17.4387743 126.966,18.2417743 127.557,18.8437743 Z M143.877,21.0207743 L142.232,21.0207743 L142.232,19.7507743 L142.157,19.7507743 C141.897,20.1857743 141.497,20.5577743 140.962,20.8507743 C140.427,21.1437743 139.862,21.3107743 139.262,21.3107743 C138.115,21.3107743 137.248,20.9627743 136.657,20.2637743 C136.066,19.5647743 135.769,18.6307743 135.769,17.4607743 L135.769,11.8547743 L137.489,11.8547743 L137.489,17.1787743 C137.489,18.8867743 138.242,19.7387743 139.749,19.7387743 C140.433567,19.7532209 141.08219,19.4330146 141.487,18.8807743 C141.931562,18.3170507 142.16882,17.6176344 142.159,16.8997743 L142.159,11.8547743 L143.879,11.8547743 L143.879,21.0117743 L143.877,21.0207743 Z M149.705,21.3177743 C148.522,21.3177743 147.499,20.8497743 146.641,19.9157743 C145.783,18.9817743 145.353,17.8237743 145.353,16.4397743 C145.353,15.0557743 145.783,13.8977743 146.641,12.9637743 C147.499,12.0297743 148.523,11.5617743 149.705,11.5617743 C150.401,11.5617743 151.029,11.7117743 151.585,12.0087743 C152.141,12.3057743 152.555,12.6807743 152.828,13.1307743 L152.903,13.1307743 L152.828,11.8607743 L152.828,7.64077435 L154.548,7.64077435 L154.548,21.0207743 L152.903,21.0207743 L152.903,19.7507743 L152.828,19.7507743 C152.555,20.1977743 152.141,20.5727743 151.585,20.8727743 C151.03,21.1667743 150.402,21.3167743 149.705,21.3167743 L149.705,21.3177743 Z M149.985,19.7477743 C150.770057,19.7584401 151.521972,19.4318213 152.05,18.8507743 C152.617,18.2537743 152.9,17.4487743 152.9,16.4507743 C152.9,15.4527743 152.618,14.6377743 152.05,14.0507743 C151.521972,13.4697274 150.770057,13.1431086 149.985,13.1537743 C149.187,13.1537743 148.502,13.4567743 147.929,14.0597743 C147.356,14.6627743 147.071,15.4647743 147.071,16.4597743 C147.071,17.4547743 147.356,18.2577743 147.929,18.8597743 C148.452539,19.44286 149.201398,19.7728537 149.985,19.7657743 L149.985,19.7477743 Z" id="Shape" fill="#5F6368" fill-rule="nonzero"></path>
        </g>
    </g>
</svg>