<?xml version="1.0" encoding="UTF-8"?>
<svg width="104px" height="30px" viewBox="0 0 104 30" version="1.1" xmlns="http://www.w3.org/2000/svg" xmlns:xlink="http://www.w3.org/1999/xlink">
    <!-- Generator: Sketch 52.1 (67048) - http://www.bohemiancoding.com/sketch -->
    <title>Group 2</title>
    <desc>Created with Sketch.</desc>
    <defs>
        <linearGradient x1="100.929941%" y1="181.283245%" x2="41.7687834%" y2="100%" id="linearGradient-1">
            <stop stop-color="#FFFFFF" offset="0%"></stop>
            <stop stop-color="#000000" offset="100%"></stop>
        </linearGradient>
    </defs>
    <g id="Page-1" stroke="none" stroke-width="1" fill="none" fill-rule="evenodd">
        <g id="Group-2">
            <g id="google_cloud-ar21" transform="translate(68.000000, 0.000000)">
                <path d="M22.87,8.572 L24.014,8.592 L27.122,5.484 L27.272,4.167 C24.802,1.97 21.552,0.633 17.995,0.633 C11.555,0.633 6.119,5.015 4.509,10.951 C4.849,10.714 5.574,10.891 5.574,10.891 L11.786,9.869 C11.786,9.869 12.106,9.339 12.266,9.372 C15.0338257,6.34407908 19.680253,5.99357066 22.871,8.572 L22.87,8.572 Z" id="Path" fill="#EA4335"></path>
                <path d="M31.5,10.962 C30.7859003,8.33468408 29.320688,5.97282855 27.284,4.166 L22.882,8.568 C24.7118371,10.0386384 25.7764494,12.2594309 25.777,14.607 L25.777,15.384 C27.919,15.384 29.657,17.127 29.657,19.264 C29.657,21.401 27.914,23.144 25.777,23.144 L18.015,23.144 L17.238,23.924 L17.238,28.582 L18.015,29.355 L25.777,29.355 C31.3422549,29.3401481 35.8490104,24.8302639 35.86,19.265 C35.856,15.829 34.124,12.785 31.49,10.962 L31.5,10.962 Z" id="Path" fill="#4285F4"></path>
                <path d="M10.234,29.362 L17.994,29.362 L17.994,23.15 L10.234,23.15 C9.68293494,23.1502632 9.13826829,23.0319167 8.637,22.803 L7.517,23.146 L4.409,26.254 L4.137,27.304 C5.88565521,28.6466388 8.03036331,29.3711549 10.235,29.364 L10.234,29.362 Z" id="Path" fill="#34A853"></path>
                <path d="M10.234,9.175 C4.66289097,9.18380984 0.148809835,13.697891 0.14,19.269 C0.13996882,22.4276945 1.62059628,25.4037557 4.14,27.309 L8.64,22.809 C7.24765966,22.1825486 6.35213858,20.7977786 6.352,19.271 C6.352,17.129 8.095,15.391 10.232,15.391 C11.7580291,15.3936736 13.1415442,16.2883832 13.77,17.679 L18.27,13.179 C16.424,10.749 13.51,9.179 10.23,9.179 L10.234,9.175 Z" id="Path" fill="#FBBC05"></path>
            </g>
            <g id="zeit-black-triangle" fill="url(#linearGradient-1)">
                <polygon id="Logotype---Black" points="17 0 34 30 0 30"></polygon>
            </g>
            <g id="Group" transform="translate(46.000000, 10.000000)"></g>
            <path d="M46.2380952,14.8911364 L55.7849539,14.8911364" id="Line" stroke="#979797" stroke-width="0.799999952" stroke-linecap="square"></path>
            <path d="M46.5575924,15.0110007 L55.6705029,15.0110007" id="Line-Copy" stroke="#979797" stroke-width="0.799999952" stroke-linecap="square" transform="translate(51.114048, 15.011001) rotate(-270.000000) translate(-51.114048, -15.011001) "></path>
        </g>
    </g>
</svg>